<svg width="2334" height="712" viewBox="0 0 2334 712" fill="none" xmlns="http://www.w3.org/2000/svg">
<path fill-rule="evenodd" clip-rule="evenodd" d="M712.509 326.526V386.516L509.637 505.82L509.297 417.349L613.101 359.752V352.989L509.524 295.333L509.637 206L712.509 326.526ZM1233.49 323.865C1241.4 328.529 1250.12 330.86 1259.65 330.86C1269.18 330.86 1277.45 328.731 1284.44 324.473C1291.44 320.215 1296.91 314.892 1300.87 308.504C1304.82 302.117 1307.3 295.628 1308.32 289.038H1283.98C1282.97 293.702 1280.39 297.909 1276.23 301.661C1272.07 305.412 1266.55 307.288 1259.65 307.288C1254.58 307.288 1249.97 306.02 1245.81 303.486C1241.66 300.85 1238.36 297.2 1235.93 292.536C1233.49 287.771 1232.28 282.296 1232.28 276.111C1232.28 269.926 1233.49 264.502 1235.93 259.838C1238.36 255.073 1241.66 251.423 1245.81 248.888C1249.97 246.252 1254.58 244.934 1259.65 244.934C1266.24 244.934 1271.62 246.759 1275.77 250.409C1280.03 253.958 1282.77 257.962 1283.98 262.423H1308.32C1307.1 255.935 1304.46 249.547 1300.41 243.261C1296.46 236.975 1290.98 231.754 1283.98 227.597C1277.09 223.44 1268.98 221.361 1259.65 221.361C1250.12 221.361 1241.4 223.744 1233.49 228.509C1225.59 233.173 1219.35 239.662 1214.79 247.976C1210.23 256.289 1207.94 265.668 1207.94 276.111C1207.94 286.554 1210.23 295.932 1214.79 304.246C1219.35 312.56 1225.59 319.099 1233.49 323.865ZM1375.3 330.86C1365.77 330.86 1357.05 328.529 1349.15 323.865C1341.24 319.099 1335 312.56 1330.44 304.246C1325.88 295.932 1323.6 286.554 1323.6 276.111C1323.6 265.668 1325.88 256.289 1330.44 247.976C1335 239.662 1341.24 233.173 1349.15 228.509C1357.05 223.744 1365.77 221.361 1375.3 221.361C1384.83 221.361 1393.55 223.744 1401.46 228.509C1409.37 233.173 1415.6 239.662 1420.17 247.976C1424.73 256.289 1427.01 265.668 1427.01 276.111C1427.01 286.554 1424.73 295.932 1420.17 304.246C1415.6 312.56 1409.37 319.099 1401.46 323.865C1393.55 328.529 1384.83 330.86 1375.3 330.86ZM1375.3 307.288C1380.37 307.288 1384.99 306.02 1389.14 303.486C1393.3 300.85 1396.59 297.2 1399.03 292.536C1401.46 287.771 1402.68 282.296 1402.68 276.111C1402.68 269.926 1401.46 264.502 1399.03 259.838C1396.59 255.073 1393.3 251.423 1389.14 248.888C1384.99 246.252 1380.37 244.934 1375.3 244.934C1370.23 244.934 1365.62 246.252 1361.46 248.888C1357.31 251.423 1354.01 255.073 1351.58 259.838C1349.15 264.502 1347.93 269.926 1347.93 276.111C1347.93 282.296 1349.15 287.771 1351.58 292.536C1354.01 297.2 1357.31 300.85 1361.46 303.486C1365.62 306.02 1370.23 307.288 1375.3 307.288ZM1773.07 273.069H1819.91V329.34H1801.66L1800.14 318.694H1799.38C1796.54 322.141 1792.64 325.031 1787.67 327.363C1782.71 329.695 1777.08 330.86 1770.79 330.86C1761.16 330.86 1752.34 328.529 1744.33 323.865C1736.42 319.099 1730.19 312.56 1725.62 304.246C1721.06 295.932 1718.78 286.554 1718.78 276.111C1718.78 265.668 1721.06 256.289 1725.62 247.976C1730.29 239.56 1736.57 233.021 1744.48 228.357C1752.49 223.693 1761.26 221.361 1770.79 221.361C1779.71 221.361 1787.57 223.288 1794.36 227.14C1801.16 230.892 1806.58 235.708 1810.64 241.588C1814.69 247.367 1817.48 253.299 1819 259.382H1794.06C1792.24 255.326 1789.24 251.93 1785.09 249.192C1780.93 246.353 1776.17 244.934 1770.79 244.934C1765.52 244.934 1760.81 246.201 1756.65 248.736C1752.49 251.271 1749.2 254.921 1746.76 259.686C1744.33 264.35 1743.11 269.825 1743.11 276.111C1743.11 282.397 1744.33 287.923 1746.76 292.688C1749.2 297.352 1752.49 300.951 1756.65 303.486C1760.81 306.02 1765.52 307.288 1770.79 307.288C1775.66 307.288 1779.87 306.375 1783.42 304.55C1786.96 302.725 1789.7 300.495 1791.63 297.859C1793.66 295.223 1794.92 292.637 1795.43 290.102V289.798H1773.07V273.069ZM1843.45 329.34H1867.78V222.882H1843.45V329.34ZM1937.71 330.86C1928.69 330.86 1920.78 329.036 1913.99 325.386C1907.19 321.634 1901.97 316.362 1898.32 309.569C1894.67 302.675 1892.85 294.564 1892.85 285.236V222.882H1917.18V285.236C1917.18 289.494 1918.09 293.296 1919.92 296.642C1921.74 299.988 1924.23 302.624 1927.37 304.55C1930.51 306.375 1933.96 307.288 1937.71 307.288C1941.46 307.288 1944.91 306.375 1948.05 304.55C1951.2 302.624 1953.68 299.988 1955.51 296.642C1957.33 293.296 1958.24 289.494 1958.24 285.236V222.882H1982.58V285.236C1982.58 294.564 1980.75 302.675 1977.1 309.569C1973.45 316.362 1968.23 321.634 1961.44 325.386C1954.64 329.036 1946.74 330.86 1937.71 330.86ZM2031.96 329.34H2007.63V222.882H2044.89L2066.18 289.038H2069.22L2090.51 222.882H2127.77V329.34H2103.44V263.944H2100.39L2079.1 329.34H2056.29L2035 263.944H2031.96V329.34ZM1627.59 329.34H1700.59V307.288H1651.92V286.757H1697.55V265.465H1651.92V244.934H1700.59V222.882H1627.59V329.34ZM1610.17 329.34H1537.93V222.882H1562.27V305.767H1610.17V329.34ZM1448.27 329.34H1520.5V305.767H1472.6V222.882H1448.27V329.34ZM1890.32 488.797H1865.99V382.339H1890.32V488.797ZM1775.89 483.32C1783.8 487.984 1792.52 490.316 1802.05 490.316C1811.58 490.316 1819.84 488.187 1826.84 483.929C1833.83 479.67 1839.31 474.347 1843.26 467.96C1847.21 461.572 1849.7 455.084 1850.71 448.493H1826.38C1825.36 453.157 1822.78 457.365 1818.62 461.116C1814.47 464.868 1808.94 466.743 1802.05 466.743C1796.98 466.743 1792.36 465.476 1788.21 462.941C1784.05 460.305 1780.75 456.655 1778.32 451.991C1775.89 447.226 1774.67 441.751 1774.67 435.566C1774.67 429.382 1775.89 423.957 1778.32 419.294C1780.75 414.528 1784.05 410.878 1788.21 408.344C1792.36 405.708 1796.98 404.39 1802.05 404.39C1808.64 404.39 1814.01 406.215 1818.17 409.865C1822.42 413.413 1825.16 417.418 1826.38 421.879H1850.71C1849.49 415.39 1846.86 409.003 1842.8 402.717C1838.85 396.431 1833.37 391.209 1826.38 387.052C1819.48 382.895 1811.37 380.817 1802.05 380.817C1792.52 380.817 1783.8 383.199 1775.89 387.965C1767.98 392.629 1761.74 399.117 1757.18 407.431C1752.62 415.745 1750.34 425.123 1750.34 435.566C1750.34 446.009 1752.62 455.388 1757.18 463.702C1761.74 472.015 1767.98 478.555 1775.89 483.32ZM1667.4 488.797H1643.07V382.339H1672.72L1706.18 446.214H1709.22V382.339H1733.55V488.797H1703.9L1670.44 424.922H1667.4V488.797ZM1597.47 488.797H1621.8V382.339H1597.47V488.797ZM1551.78 488.797H1516.81L1481.83 382.339H1508.44L1532.77 458.38H1535.82L1560.15 382.339H1586.76L1551.78 488.797ZM1387.47 488.797H1414.08L1377.58 382.339H1342.6L1306.1 488.797H1332.72L1339.56 467.505H1380.62L1387.47 488.797ZM1346.4 446.214L1358.57 408.193H1361.61L1373.78 446.214H1346.4ZM1212.51 488.797V382.339H1252.05C1261.58 382.339 1270.3 384.671 1278.21 389.335C1286.12 393.999 1292.35 400.386 1296.92 408.498C1301.48 416.609 1303.76 425.632 1303.76 435.568C1303.76 445.504 1301.48 454.528 1296.92 462.639C1292.35 470.75 1286.12 477.137 1278.21 481.801C1270.3 486.465 1261.58 488.797 1252.05 488.797H1212.51ZM1252.05 465.224C1257.12 465.224 1261.73 463.957 1265.89 461.422C1270.05 458.887 1273.34 455.39 1275.78 450.928C1278.21 446.366 1279.43 441.246 1279.43 435.568C1279.43 429.89 1278.21 424.821 1275.78 420.36C1273.34 415.797 1270.05 412.249 1265.89 409.714C1261.73 407.179 1257.12 405.912 1252.05 405.912H1236.84V465.224H1252.05ZM910.41 488.923H853.529L713.209 222.993L799.164 222.904L879.406 381.041L884.533 381.039L964.775 222.902L1050.73 222.991L910.41 488.923ZM206.77 386.696V326.706L409.642 206.174L409.754 295.513L306.178 353.168V359.932L409.981 417.529L409.642 506L206.77 386.696Z" fill="white"/>
</svg>
