<svg width="2333" height="712" viewBox="0 0 2333 712" fill="none" xmlns="http://www.w3.org/2000/svg">
<path fill-rule="evenodd" clip-rule="evenodd" d="M711.968 326.526V386.516L509.096 505.82L508.756 417.349L612.56 359.752V352.989L508.983 295.333L509.096 206L711.968 326.526ZM1232.95 323.865C1240.86 328.529 1249.58 330.86 1259.11 330.86C1268.64 330.86 1276.9 328.731 1283.9 324.473C1290.9 320.215 1296.37 314.892 1300.32 308.504C1304.28 302.117 1306.76 295.628 1307.78 289.038H1283.44C1282.43 293.702 1279.84 297.909 1275.69 301.661C1271.53 305.412 1266.01 307.288 1259.11 307.288C1254.04 307.288 1249.43 306.02 1245.27 303.486C1241.11 300.85 1237.82 297.2 1235.39 292.536C1232.95 287.771 1231.74 282.296 1231.74 276.111C1231.74 269.926 1232.95 264.502 1235.39 259.838C1237.82 255.073 1241.11 251.423 1245.27 248.888C1249.43 246.252 1254.04 244.934 1259.11 244.934C1265.7 244.934 1271.07 246.759 1275.23 250.409C1279.49 253.958 1282.23 257.962 1283.44 262.423H1307.78C1306.56 255.935 1303.92 249.547 1299.87 243.261C1295.91 236.975 1290.44 231.754 1283.44 227.597C1276.55 223.44 1268.44 221.361 1259.11 221.361C1249.58 221.361 1240.86 223.744 1232.95 228.509C1225.04 233.173 1218.81 239.662 1214.25 247.976C1209.68 256.289 1207.4 265.668 1207.4 276.111C1207.4 286.554 1209.68 295.932 1214.25 304.246C1218.81 312.56 1225.04 319.099 1232.95 323.865ZM1374.76 330.86C1365.23 330.86 1356.51 328.529 1348.6 323.865C1340.7 319.099 1334.46 312.56 1329.9 304.246C1325.34 295.932 1323.05 286.554 1323.05 276.111C1323.05 265.668 1325.34 256.289 1329.9 247.976C1334.46 239.662 1340.7 233.173 1348.6 228.509C1356.51 223.744 1365.23 221.361 1374.76 221.361C1384.29 221.361 1393.01 223.744 1400.92 228.509C1408.83 233.173 1415.06 239.662 1419.63 247.976C1424.19 256.289 1426.47 265.668 1426.47 276.111C1426.47 286.554 1424.19 295.932 1419.63 304.246C1415.06 312.56 1408.83 319.099 1400.92 323.865C1393.01 328.529 1384.29 330.86 1374.76 330.86ZM1374.76 307.288C1379.83 307.288 1384.44 306.02 1388.6 303.486C1392.76 300.85 1396.05 297.2 1398.49 292.536C1400.92 287.771 1402.14 282.296 1402.14 276.111C1402.14 269.926 1400.92 264.502 1398.49 259.838C1396.05 255.073 1392.76 251.423 1388.6 248.888C1384.44 246.252 1379.83 244.934 1374.76 244.934C1369.69 244.934 1365.08 246.252 1360.92 248.888C1356.77 251.423 1353.47 255.073 1351.04 259.838C1348.6 264.502 1347.39 269.926 1347.39 276.111C1347.39 282.296 1348.6 287.771 1351.04 292.536C1353.47 297.2 1356.77 300.85 1360.92 303.486C1365.08 306.02 1369.69 307.288 1374.76 307.288ZM1772.53 273.069H1819.37V329.34H1801.12L1799.6 318.694H1798.84C1796 322.141 1792.1 325.031 1787.13 327.363C1782.16 329.695 1776.54 330.86 1770.25 330.86C1760.62 330.86 1751.8 328.529 1743.79 323.865C1735.88 319.099 1729.65 312.56 1725.08 304.246C1720.52 295.932 1718.24 286.554 1718.24 276.111C1718.24 265.668 1720.52 256.289 1725.08 247.976C1729.75 239.56 1736.03 233.021 1743.94 228.357C1751.95 223.693 1760.72 221.361 1770.25 221.361C1779.17 221.361 1787.03 223.288 1793.82 227.14C1800.62 230.892 1806.04 235.708 1810.1 241.588C1814.15 247.367 1816.94 253.299 1818.46 259.382H1793.52C1791.69 255.326 1788.7 251.93 1784.55 249.192C1780.39 246.353 1775.62 244.934 1770.25 244.934C1764.98 244.934 1760.26 246.201 1756.11 248.736C1751.95 251.271 1748.66 254.921 1746.22 259.686C1743.79 264.35 1742.57 269.825 1742.57 276.111C1742.57 282.397 1743.79 287.923 1746.22 292.688C1748.66 297.352 1751.95 300.951 1756.11 303.486C1760.26 306.02 1764.98 307.288 1770.25 307.288C1775.12 307.288 1779.33 306.375 1782.87 304.55C1786.42 302.725 1789.16 300.495 1791.09 297.859C1793.11 295.223 1794.38 292.637 1794.89 290.102V289.798H1772.53V273.069ZM1842.91 329.34H1867.24V222.882H1842.91V329.34ZM1937.17 330.86C1928.15 330.86 1920.24 329.036 1913.45 325.386C1906.65 321.634 1901.43 316.362 1897.78 309.569C1894.13 302.675 1892.31 294.564 1892.31 285.236V222.882H1916.64V285.236C1916.64 289.494 1917.55 293.296 1919.38 296.642C1921.2 299.988 1923.69 302.624 1926.83 304.55C1929.97 306.375 1933.42 307.288 1937.17 307.288C1940.92 307.288 1944.37 306.375 1947.51 304.55C1950.66 302.624 1953.14 299.988 1954.96 296.642C1956.79 293.296 1957.7 289.494 1957.7 285.236V222.882H1982.03V285.236C1982.03 294.564 1980.21 302.675 1976.56 309.569C1972.91 316.362 1967.69 321.634 1960.9 325.386C1954.1 329.036 1946.19 330.86 1937.17 330.86ZM2031.42 329.34H2007.09V222.882H2044.34L2065.64 289.038H2068.68L2089.97 222.882H2127.23V329.34H2102.9V263.944H2099.85L2078.56 329.34H2055.75L2034.46 263.944H2031.42V329.34ZM1627.05 329.34H1700.05V307.288H1651.38V286.757H1697.01V265.465H1651.38V244.934H1700.05V222.882H1627.05V329.34ZM1609.63 329.34H1537.39V222.882H1561.72V305.767H1609.63V329.34ZM1447.72 329.34H1519.96V305.767H1472.06V222.882H1447.72V329.34ZM1889.78 488.797H1865.45V382.339H1889.78V488.797ZM1775.35 483.32C1783.26 487.984 1791.97 490.316 1801.5 490.316C1811.04 490.316 1819.3 488.187 1826.29 483.929C1833.29 479.67 1838.76 474.347 1842.72 467.96C1846.67 461.572 1849.16 455.084 1850.17 448.493H1825.84C1824.82 453.157 1822.24 457.365 1818.08 461.116C1813.92 464.868 1808.4 466.743 1801.5 466.743C1796.44 466.743 1791.82 465.476 1787.67 462.941C1783.51 460.305 1780.21 456.655 1777.78 451.991C1775.35 447.226 1774.13 441.751 1774.13 435.566C1774.13 429.382 1775.35 423.957 1777.78 419.294C1780.21 414.528 1783.51 410.878 1787.67 408.344C1791.82 405.708 1796.44 404.39 1801.5 404.39C1808.1 404.39 1813.47 406.215 1817.63 409.865C1821.88 413.413 1824.62 417.418 1825.84 421.879H1850.17C1848.95 415.39 1846.32 409.003 1842.26 402.717C1838.31 396.431 1832.83 391.209 1825.84 387.052C1818.94 382.895 1810.83 380.817 1801.5 380.817C1791.97 380.817 1783.26 383.199 1775.35 387.965C1767.44 392.629 1761.2 399.117 1756.64 407.431C1752.08 415.745 1749.8 425.123 1749.8 435.566C1749.8 446.009 1752.08 455.388 1756.64 463.702C1761.2 472.015 1767.44 478.555 1775.35 483.32ZM1666.86 488.797H1642.52V382.339H1672.18L1705.64 446.214H1708.68V382.339H1733.01V488.797H1703.36L1669.9 424.922H1666.86V488.797ZM1596.93 488.797H1621.26V382.339H1596.93V488.797ZM1551.24 488.797H1516.26L1481.29 382.339H1507.9L1532.23 458.38H1535.27L1559.61 382.339H1586.22L1551.24 488.797ZM1386.93 488.797H1413.54L1377.04 382.339H1342.06L1305.56 488.797H1332.18L1339.02 467.505H1380.08L1386.93 488.797ZM1345.86 446.214L1358.03 408.193H1361.07L1373.24 446.214H1345.86ZM1211.97 488.797V382.339H1251.51C1261.04 382.339 1269.76 384.671 1277.67 389.335C1285.58 393.999 1291.81 400.386 1296.37 408.498C1300.94 416.609 1303.22 425.632 1303.22 435.568C1303.22 445.504 1300.94 454.528 1296.37 462.639C1291.81 470.75 1285.58 477.137 1277.67 481.801C1269.76 486.465 1261.04 488.797 1251.51 488.797H1211.97ZM1251.51 465.224C1256.58 465.224 1261.19 463.957 1265.35 461.422C1269.51 458.887 1272.8 455.39 1275.24 450.928C1277.67 446.366 1278.89 441.246 1278.89 435.568C1278.89 429.89 1277.67 424.821 1275.24 420.36C1272.8 415.797 1269.51 412.249 1265.35 409.714C1261.19 407.179 1256.58 405.912 1251.51 405.912H1236.3V465.224H1251.51ZM909.869 488.923H852.988L712.668 222.993L798.623 222.904L878.865 381.041L883.992 381.039L964.234 222.902L1050.19 222.991L909.869 488.923ZM206.229 386.696V326.706L409.101 206.174L409.213 295.513L305.637 353.168V359.932L409.44 417.529L409.101 506L206.229 386.696Z" fill="#1E252D"/>
</svg>
